# xmcd
#
# Track frame offsets:
#	182
#	11970
#	28352
#	42955
#	58422
#	74195
#	87632
#	99537
#	116635
#	131447
#
# Disc length: 2034 seconds
#
# Revision: 4
# Processed by: cddbd v1.5.2PL0 Copyright (c) Steve Scherf et al.
# Submitted via: audiograbber 1.83.01
#
DISCID=9d07f00a
DTITLE=Various Artist - Country Love Songs
DYEAR=1989
DGENRE=Country
TTITLE0=Emmylou Harris - If I Could Only Win Your Love
TTITLE1=Johnny Lee - Lookin' For Love
TTITLE2=The Forester Sisters - I Fell In Love Again Last Night
TTITLE3=Michael Martin Murphey - Long Line Of Love
TTITLE4=Holly Dunn - Daddy's Hands
TTITLE5=Conway Twitty - I Don't Know A Thing About Love
TTITLE6=The McCarters - Timeless And True Love
TTITLE7=Southern Pacific - New Shade Of Blue
TTITLE8=Crystal Gayle - I Don't Wanna Lose Your Love
TTITLE9=Gary Morris - Wind Beneath My Wings
EXTD=
EXTT0=
EXTT1=
EXTT2=
EXTT3=
EXTT4=
EXTT5=
EXTT6=
EXTT7=
EXTT8=
EXTT9=
PLAYORDER=
